<?xml version="1.0" encoding="utf-8"?>
<!-- Svg Vector Icons : http://www.onlinewebfonts.com/icon -->
<!DOCTYPE svg PUBLIC "-//W3C//DTD SVG 1.1//EN" "http://www.w3.org/Graphics/SVG/1.1/DTD/svg11.dtd">
<svg version="1.1" xmlns="http://www.w3.org/2000/svg" xmlns:xlink="http://www.w3.org/1999/xlink" x="0px" y="0px" viewBox="0 0 1000 1000" enable-background="new 0 0 1000 1000" xml:space="preserve">
<metadata> Svg Vector Icons : http://www.onlinewebfonts.com/icon </metadata>
<g><g transform="translate(0.000000,511.000000) scale(0.100000,-0.100000)"><path d="M4644.6,4991.7C3498.7,4876.3,2783.4,4239.9,2645,3211.3c-26.9-200-15.4-765.2,19.2-909.4c9.6-48.1,23.1-105.7,28.8-128.8c9.6-42.3,19.2-44.2,207.6-44.2c573,0,1309.4,190.3,1999.6,515.3c113.4,53.8,205.7,90.4,205.7,80.8c0-7.7-50-61.5-111.5-117.3c-126.9-117.3-344.2-250-565.3-344.2c-82.7-36.5-148-67.3-144.2-69.2c1.9-3.8,126.9,15.4,274.9,40.4c774.8,134.6,1326.7,357.6,1615,657.6l96.1,100l25-92.3c59.6-234.6,407.6-601.8,696-732.5c125-55.8,144.2-51.9,169.2,48.1c23.1,90.4,63.4,125,142.3,125c48.1,0,48.1,1.9,61.5,219.2c25,380.7-40.4,896-150,1184.4c-155.8,413.4-378.8,701.8-709.5,917.1c-255.7,165.3-632.5,290.3-1005.6,332.6C5298.3,5016.7,4879.2,5014.8,4644.6,4991.7z"/><path d="M3137.2,1973.1c-215.3-28.8-251.9-42.3-257.6-96.1c-3.8-32.7,25-80.8,101.9-171.1c59.6-69.2,138.4-190.3,175-269.2c184.6-388.4,225-457.6,290.3-526.8c40.4-42.3,109.6-90.4,151.9-111.5c163.4-71.1,565.3-78.8,819.1-15.4c130.7,34.6,223,123,332.6,326.9c94.2,171.1,194.2,288.4,250,288.4c53.8,0,161.5-119.2,242.2-265.3c171.1-313.4,228.8-351.9,590.3-388.4c209.6-23.1,463.4,5.8,594.1,67.3c128.8,57.7,188.4,140.4,351.8,480.7c80.8,171.1,161.5,307.6,219.2,374.9c119.2,138.4,155.7,205.7,126.9,240.3c-38.5,46.1-286.5,76.9-624.9,75c-488.4,0-784.5-65.4-1211.3-263.4c-269.2-125-301.8-125-576.8,0c-411.5,190.3-686.4,253.8-1134.4,265.3C3408.3,1988.5,3210.3,1984.6,3137.2,1973.1z M3906.3,1830.8c173-26.9,426.8-103.8,536.4-159.6c201.9-101.9,263.4-259.6,194.2-490.3c-40.4-132.7-101.9-205.7-221.1-261.5c-100-46.1-125-50-386.5-50c-242.3,1.9-290.3,5.8-365.3,42.3c-163.4,75-221.1,155.7-317.2,446.1c-71.1,217.3-73.1,349.9-5.8,417.2C3427.5,1861.6,3606.3,1878.9,3906.3,1830.8z M6617.2,1815.4c78.8-40.4,111.5-125,96.1-240.3c-17.3-125-121.1-430.7-171.1-507.6c-98.1-144.2-271.1-207.7-559.5-207.7c-332.6,0-496.1,67.3-576.8,236.5c-86.5,182.7-80.8,369.2,13.4,473c88.5,94.2,373,205.7,671,263.4C6265.4,1865.4,6538.4,1855.8,6617.2,1815.4z"/><path d="M7299.8,1632.8c-25-59.6-80.7-169.2-123-244.2c-44.2-75-125-271.1-180.7-440.3c-192.3-571-398-938.3-701.8-1251.7c-182.6-186.5-226.9-263.4-255.7-426.8l-13.5-82.7H6748c469.1,0,722.9,7.7,722.9,19.2c0,9.6-13.5,94.2-28.8,186.5c-88.4,522.9-136.5,1361.2-109.6,1966.9c9.6,205.7,15.4,376.8,13.5,378.8C7344,1742.4,7322.9,1694.3,7299.8,1632.8z"/><path d="M2673.8,1013.7c0-438.4-9.6-799.8-26.9-961.3c-23.1-248-80.8-669.1-109.6-801.7l-11.5-63.4h724.9h724.9l-13.5,88.4c-26.9,178.8-61.5,240.3-251.9,430.7C3385.2,37,3193,381.1,2993,1004.1c-46.1,138.4-107.7,290.3-140.4,340.3c-30.8,51.9-84.6,155.7-119.2,232.6l-59.6,140.4V1013.7z"/><path d="M2541.2-1149.3c-107.7-38.5-205.7-125-265.3-232.7l-53.8-94.2v-1338.2v-1340.1l221.1-98.1c1511.2-684.5,3293.5-717.2,4839.4-86.5c113.4,46.2,257.6,109.6,323,142.3l117.3,59.6l-5.8,1320.9c-5.8,1224.8-7.7,1326.7-40.4,1397.8c-44.2,96.1-134.6,192.3-234.6,246.1l-76.9,42.3l-2374.5,3.8C3006.5-1122.4,2604.6-1126.3,2541.2-1149.3z M5555.9-3104.7c11.5-34.6,11.5-73.1,0-105.8l-17.3-53.8l-538.3-5.8c-296.1-1.9-557.6,0-580.7,5.8c-50,11.5-73.1,96.1-46.1,169.2l21.1,51.9l571-3.8l572.9-5.8L5555.9-3104.7z"/><path d="M8028.5-2810.5c0-690.2,7.7-1155.5,17.3-1155.5c30.8,0,601.8,388.4,755.6,515.3c130.7,105.7,148,126.9,140.4,173c-3.9,28.8-19.2,186.5-30.8,349.9c-25,336.5-59.6,459.5-180.7,642.2c-121.1,182.7-388.4,428.8-647.9,598l-53.8,32.7V-2810.5z"/><path d="M1729.8-1828c-242.3-182.7-436.4-399.9-530.7-594.1l-78.8-163.4l-32.7-405.7c-19.2-225-32.7-409.5-30.8-411.5c0,0,98.1-75,217.3-163.4c223-165.4,599.9-409.5,613.3-394.2c3.8,3.9,5.8,511.5,3.8,1128.6l-5.8,1120.9L1729.8-1828z"/></g></g>
</svg>